<svg width="169" height="143" viewBox="0 0 169 143" fill="none" xmlns="http://www.w3.org/2000/svg">
<g style="mix-blend-mode:multiply" opacity="0.35">
<path d="M160.065 135.29C161.457 134.477 162.772 133.513 163.99 132.414C171.437 125.626 170.373 116.357 160.714 110.29C154.331 106.262 145.577 104.468 137.098 104.981C138.162 99.8108 135.577 94.3962 129.195 90.3673C123.642 86.8741 116.28 85.0576 108.887 84.9761L79.7826 84.6384H78.9635C71.7405 84.6384 64.5175 86.3035 58.9221 89.6221L58.4221 89.9365L58.0179 90.1578C39.9338 100.87 47.827 140.169 47.827 140.169C47.827 140.169 63.1453 141.625 80.8995 141.858H81.1336H83.793L107.526 142.079C110.164 142.079 112.844 142.161 115.6 142.149C132.684 142.149 150.789 140.752 159.129 135.803L159.512 135.558L160.065 135.29Z" fill="#3F5052"/>
</g>
<path d="M114.961 81.5294C114.949 79.008 114.747 76.4921 114.355 74.0073L56.5818 110.488C62.6985 120.968 67.0918 127.955 67.0918 127.955C67.0918 127.955 68.2939 127.57 70.2831 126.79L71.0171 129.119L88.4629 118.034C90.2181 116.998 91.9946 115.868 93.7817 114.669C104.76 107.17 114.961 96.5271 114.961 82.9035C114.961 82.6822 114.961 82.4726 114.961 82.2514C114.961 82.0301 114.961 81.7856 114.961 81.5294Z" fill="#CE3E3D"/>
<path d="M88.1119 30.5979C79.6017 25.2183 72.017 25.4395 67.0918 30.1438C62.1772 19.2216 54.5925 9.41717 46.0824 4.03758C38.6679 -0.643372 31.913 -1.14407 27.1048 1.96492L7.44635 14.3776L19.4137 16.7064C19.2718 18.1254 19.2079 19.5524 19.2223 20.9798C19.2223 21.2593 19.2223 21.5387 19.2223 21.8182C19.2223 22.0977 19.2223 22.2374 19.2223 22.447C19.2223 43.1037 42.4975 86.1871 56.5818 110.488L114.355 73.984C111.77 57.0767 101.005 38.7488 88.1119 30.5979Z" fill="#FF8484"/>
<path d="M95.7391 93.6626C95.7391 74.9155 83.7185 52.1163 68.8896 42.7544C60.3795 37.3748 52.7948 37.596 47.8695 42.3002C42.9549 31.378 35.3703 21.5736 26.8495 16.194C12.0206 6.82051 0 14.4125 0 33.1596C0 33.439 0 33.7185 0 33.998C0 34.2774 0 34.4171 0 34.6267C0 64.1447 47.8695 140.146 47.8695 140.146C47.8695 140.146 95.7391 124.613 95.7391 95.1414C95.7391 94.9202 95.7391 94.7106 95.7391 94.4893C95.7391 94.2681 95.7391 93.9421 95.7391 93.6626Z" fill="#EB5946"/>
</svg>
