<svg width="169" height="143" viewBox="0 0 169 143" fill="none" xmlns="http://www.w3.org/2000/svg">
<g style="mix-blend-mode:multiply" opacity="0.35">
<path d="M168.87 97.1923L127.074 78.4886L106.023 78.3459L20.5909 114.196L82.7319 141.995L103.768 142.15L167.704 115.325L168.87 97.1923Z" fill="#3F5052"/>
</g>
<path d="M82.8546 67.8943L55.1443 30.8556L0 6.18298V104.957L82.8546 142.019V67.8943Z" fill="#E5E3C3"/>
<path d="M55.1443 30.8556L69.5212 24.9342L13.8091 0L0 6.18302L55.1443 30.8556Z" fill="#FAF9E1"/>
<path d="M82.8546 142.019V67.8943L96.6637 61.9491V135.848L82.8546 142.019Z" fill="#C5BC93"/>
<path d="M55.1444 30.8556L69.5212 24.9342L96.6638 61.9491L82.8547 67.8943L55.1444 30.8556Z" fill="#C5BC93"/>
<path d="M55.1444 30.8556V55.5639L82.8547 67.8942L55.1444 30.8556Z" fill="#FAF9E1"/>
<path d="M13.8091 24.637L13.8705 49.369L41.4119 61.6994L41.4273 36.9911L13.8091 24.637Z" fill="#6C7F80"/>
<path d="M69.0455 86.4196L13.8245 61.6995V74.0655L69.0455 98.7738V86.4196Z" fill="#C5BC93"/>
<path d="M13.8245 86.4197V98.7857L69.0455 123.494V111.14L13.8245 86.4197Z" fill="#C5BC93"/>
</svg>
