<svg width="140" height="53" viewBox="0 0 140 53" fill="none" xmlns="http://www.w3.org/2000/svg">
<path d="M112.715 38.537C112.715 40.967 110.754 43.3836 108.258 43.2367C105.788 43.0898 104.338 40.9269 104.338 38.537V26.2538H98.8096V38.537C98.8096 40.2327 99.1232 41.9283 99.842 43.4637C101.11 46.174 103.58 48.0833 106.455 48.6841C108.036 49.0045 109.617 48.9511 111.146 48.4037C112.623 47.8696 113.93 46.9617 115.08 45.8936L116.91 48.4838H118.256V26.2538H112.715V38.537Z" fill="#FFC107"/>
<path d="M138.656 39.0577C137.623 36.3608 134.944 34.7987 132.174 34.7987H126.411C124.633 34.7987 124.62 31.9281 126.411 31.9281H137.65V26.2805H126.411C124.79 26.2805 123.196 26.8546 121.954 27.9227C119.746 29.8186 118.922 33.0763 119.942 35.8401C120.961 38.5637 123.549 40.4329 126.411 40.4329H132.174C132.84 40.4329 133.559 40.6065 133.559 41.4076C133.559 42.182 132.932 42.8228 132.174 42.8228H119.497V48.4838H132.174C133.794 48.4838 135.376 47.8963 136.617 46.8282C138.747 44.9724 139.688 41.7814 138.656 39.0577Z" fill="#FFC107"/>
<path d="M64.6905 42.9885C64.6905 45.0475 63.7353 47.0417 62.1128 48.3367C60.451 49.6705 58.2266 50.1755 56.1331 49.6964C54.9816 49.4374 53.9217 48.8935 53.032 48.1036C51.4618 49.5151 49.2897 50.1108 47.2093 49.7741C45.168 49.4374 43.3362 48.1554 42.3156 46.3683C41.7268 45.3324 41.4127 44.1669 41.4127 42.9755V31.4374H46.084V42.9755C46.084 44.2446 47.17 45.2935 48.4523 45.2547C49.6954 45.2288 50.7291 44.2058 50.7291 42.9755V31.4374H55.3741V42.9755C55.3741 44.2446 56.4864 45.2935 57.7556 45.2547C58.9855 45.2288 60.0323 44.2058 60.0323 42.9755V31.4374H64.6774V42.9885H64.6905Z" fill="white"/>
<path fill-rule="evenodd" clip-rule="evenodd" d="M78.7566 42.5612C77.9061 44.4647 75.5247 45.7468 73.4573 45.0993L82.1979 34.6748C80.0782 31.6835 76.2967 30.2201 72.6722 30.9065C69.6627 31.4763 67.1635 33.5094 65.9728 36.2935C64.769 39.1295 64.9391 42.6 66.4831 45.2806C68.0009 47.9094 70.788 49.6446 73.8367 49.8518C77.0948 50.0719 80.2875 48.6216 82.1717 45.9669L78.7566 42.5612ZM70.8142 37.3036C71.8479 35.7755 74.0592 34.9338 75.8518 35.5813L70.4216 42.7165C69.9636 41.9266 69.9113 40.8389 69.9506 39.9583C70.0029 39.013 70.2777 38.0935 70.8142 37.3036Z" fill="white"/>
<path fill-rule="evenodd" clip-rule="evenodd" d="M94.9948 49.282C98.7632 47.8835 100.961 44.2317 100.961 40.3209C100.961 38.8058 100.66 37.3295 99.9931 35.9698C98.894 33.7036 96.9313 31.9424 94.5106 31.1655C92.0638 30.3755 88.6617 30.505 86.9476 32.6676V24.2115H82.2633V40.3209C82.2633 42.5482 82.9568 44.7496 84.383 46.4978C86.8953 49.5669 91.2787 50.6676 94.9948 49.282ZM93.3068 35.7237C95.1649 36.4878 96.264 38.3655 96.264 40.3209C96.264 42.5353 94.7985 44.6719 92.5479 45.1381C90.5852 45.5525 88.5832 44.5683 87.6281 42.859C86.6336 41.0978 86.8037 38.8446 88.0468 37.2388C89.2767 35.646 91.3965 34.9468 93.3068 35.7237Z" fill="white"/>
<path fill-rule="evenodd" clip-rule="evenodd" d="M0 33.2374C0 22.674 8.57324 14.1007 19.1367 14.1007C29.7129 14.1007 38.2734 22.674 38.2734 33.2374C38.2734 43.8009 29.7001 52.3741 19.1367 52.3741C8.57324 52.3741 0 43.8009 0 33.2374ZM13.3957 29.4101C13.3957 34.6918 17.6823 38.9784 22.964 38.9784C28.2585 38.9784 32.5324 34.6918 32.5324 29.4101C32.5324 24.1283 28.2458 19.8417 22.964 19.8417C17.6823 19.8417 13.3957 24.1283 13.3957 29.4101Z" fill="white"/>
<path d="M42.8058 19.1367C48.0902 19.1367 52.3741 14.8528 52.3741 9.56835C52.3741 4.28389 48.0902 0 42.8058 0C37.5213 0 33.2374 4.28389 33.2374 9.56835C33.2374 14.8528 37.5213 19.1367 42.8058 19.1367Z" fill="#FFC107"/>
</svg>
